<?xml version="1.0" encoding="utf-8"?>
<!-- Generator: Adobe Illustrator 15.1.0, SVG Export Plug-In  -->
<!DOCTYPE svg PUBLIC "-//W3C//DTD SVG 1.1//EN" "http://www.w3.org/Graphics/SVG/1.1/DTD/svg11.dtd" [
	<!ENTITY ns_flows "http://ns.adobe.com/Flows/1.0/">
]>
<svg version="1.1"
	 xmlns="http://www.w3.org/2000/svg" xmlns:xlink="http://www.w3.org/1999/xlink" xmlns:a="http://ns.adobe.com/AdobeSVGViewerExtensions/3.0/"
	 x="0px" y="0px" width="405px" height="370px" viewBox="0 0 405 370" enable-background="new 0 0 405 370" xml:space="preserve">
<defs>
</defs>
<path fill="#F5F5F5" d="M8.573,299.087c0-2.109,1.857-3.975,3.973-3.975c2.237,0,3.979,1.865,3.979,3.975v13.047h8.071
	c2.116,0,3.729,1.613,3.729,3.725c0,2.113-1.612,3.727-3.729,3.727h-8.071v34.293c0,5.342,2.979,8.197,7.205,8.197
	c2.109,0,3.848,1.615,3.848,3.727c0,2.113-1.738,3.729-3.848,3.729c-9.815,0-15.156-6.584-15.156-15.652v-34.293H3.726
	c-2.112,0-3.726-1.613-3.726-3.727c0-2.111,1.613-3.725,3.726-3.725h4.848V299.087z"/>
<path fill="#F5F5F5" d="M46.833,315.117v32.424c0,8.076,2.607,15.033,15.157,15.033c12.546,0,15.157-6.957,15.157-15.033v-32.424
	c0-2.238,1.864-3.977,4.099-3.977c2.108,0,3.851,1.738,3.851,3.977v32.424c0,11.803-3.851,22.611-23.106,22.611
	c-19.136,0-23.108-10.809-23.108-22.611v-32.424c0-2.238,1.738-3.977,3.973-3.977C44.97,311.14,46.833,312.878,46.833,315.117z"/>
<path fill="#F5F5F5" d="M121.865,310.394c11.06,0,17.147,5.84,19.134,8.57c0.621,0.871,0.869,1.492,0.869,2.361
	c0,2.113-1.613,3.604-3.603,3.604c-1.242,0-2.108-0.496-2.981-1.49c-1.864-2.113-5.219-5.84-13.419-5.84
	c-11.429,0-17.517,7.33-17.517,22.609c0,15.531,6.088,22.738,17.517,22.738c7.205,0,11.555-3.232,14.413-5.344
	c0.87-0.621,1.491-0.869,2.357-0.869c1.989,0,3.605,1.613,3.605,3.602c0,1.117-0.373,1.99-1.616,3.107
	c-2.732,2.234-8.695,6.709-18.76,6.709c-16.022,0-25.594-9.564-25.594-29.943C96.271,319.835,105.843,310.394,121.865,310.394z"/>
<path fill="#F5F5F5" d="M153.915,294.738c0-3.604,1.736-4.969,4.721-4.969c2.981,0,4.723,1.365,4.723,4.969
	c0,2.984-1.741,4.725-4.723,4.725C155.651,299.462,153.915,297.722,153.915,294.738z M162.611,365.554
	c0,2.238-1.742,3.977-3.976,3.977c-2.237,0-3.977-1.738-3.977-3.977v-50.438c0-2.238,1.739-3.977,3.977-3.977
	c2.233,0,3.976,1.738,3.976,3.977V365.554z"/>
<path fill="#F5F5F5" d="M185.47,315.117v32.424c0,8.076,2.61,15.033,15.153,15.033c12.55,0,15.157-6.957,15.157-15.033v-32.424
	c0-2.238,1.864-3.977,4.102-3.977c2.111,0,3.851,1.738,3.851,3.977v32.424c0,11.803-3.851,22.611-23.109,22.611
	c-19.13,0-23.105-10.809-23.105-22.611v-32.424c0-2.238,1.738-3.977,3.976-3.977C183.605,311.14,185.47,312.878,185.47,315.117z"/>
<path fill="#F5F5F5" d="M276.776,318.468v-34.412c0-2.236,1.74-3.977,3.976-3.977c2.237,0,3.976,1.74,3.976,3.977v61.619
	c0,16.4-10.187,24.477-24.352,24.477c-16.023,0-25.465-9.564-25.465-29.943c0-20.373,8.943-29.814,24.973-29.814
	C267.832,310.394,273.921,314.496,276.776,318.468z M276.776,328.531c0,0-4.72-10.932-16.4-10.932
	c-11.303,0-17.517,7.33-17.517,22.609c0,15.531,6.088,22.738,17.517,22.738c9.568,0,16.4-5.467,16.4-17.271V328.531z"/>
<path fill="#F5F5F5" d="M307.21,324.185c-1.243,1.365-2.113,1.738-3.232,1.738c-1.986,0-3.603-1.615-3.603-3.602
	c0-0.873,0.251-1.494,0.621-2.115c3.48-5.465,10.187-9.813,20.624-9.813c14.413,0,22.365,8.447,22.365,21.119v34.164
	c0,2.115-1.741,3.854-3.851,3.854c-2.114,0-3.853-1.738-3.853-3.854v-4.469c-3.107,5.838-10.313,8.943-17.77,8.943
	c-13.167,0-21.489-6.336-21.489-17.768c0-10.932,8.322-17.518,21.737-17.518h17.521v-3.354c0-8.445-5.593-13.668-14.662-13.668
	C315.036,317.845,311.061,319.835,307.21,324.185z M336.282,347.042v-5.219h-17.521c-8.074,0-13.664,3.355-13.664,10.561
	c0,6.461,4.473,10.563,14.163,10.563C327.956,362.947,336.282,357.603,336.282,347.042z"/>
<path fill="#F5F5F5" d="M397.029,318.468v-34.412c0-2.236,1.738-3.977,3.973-3.977c2.235,0,3.976,1.74,3.976,3.977v61.619
	c0,16.4-10.186,24.477-24.352,24.477c-16.025,0-25.466-9.564-25.466-29.943c0-20.373,8.943-29.814,24.974-29.814
	C388.085,310.394,394.171,314.496,397.029,318.468z M397.029,328.531c0,0-4.724-10.932-16.403-10.932
	c-11.304,0-17.515,7.33-17.515,22.609c0,15.531,6.085,22.738,17.515,22.738c9.568,0,16.403-5.467,16.403-17.271V328.531z"/>
<path fill="#E4AF3A" d="M68.538,245.701c0,10.568-8.562,19.135-19.136,19.135l0,0c-10.565,0-19.137-8.566-19.137-19.135v-42.867
	c0-10.572,8.571-19.131,19.137-19.131l0,0c10.574,0,19.136,8.559,19.136,19.131V245.701z"/>
<path fill="#52A171" d="M145.082,245.701c0,10.568-8.566,19.135-19.136,19.135l0,0c-10.571,0-19.137-8.566-19.137-19.135V80.367
	c0-10.57,8.565-19.133,19.137-19.133l0,0c10.569,0,19.136,8.563,19.136,19.133V245.701z"/>
<path fill="#76AADB" d="M221.623,245.701c0,10.568-8.563,19.135-19.136,19.135l0,0c-10.568,0-19.136-8.566-19.136-19.135V19.136
	C183.352,8.563,191.919,0,202.487,0l0,0c10.572,0,19.136,8.563,19.136,19.136V245.701z"/>
<path fill="#C6525C" d="M298.161,245.701c0,10.568-8.564,19.135-19.136,19.135l0,0c-10.569,0-19.13-8.566-19.13-19.135v-104.1
	c0-10.572,8.561-19.133,19.13-19.133l0,0c10.571,0,19.136,8.561,19.136,19.133V245.701z"/>
<path fill="#D1763A" d="M374.712,245.701c0,10.568-8.567,19.135-19.143,19.135l0,0c-10.565,0-19.136-8.566-19.136-19.135v-42.867
	c0-10.572,8.57-19.131,19.136-19.131l0,0c10.575,0,19.143,8.559,19.143,19.131V245.701z"/>
</svg>
